<?xml version="1.0" standalone="no"?>
<!DOCTYPE svg PUBLIC "-//W3C//DTD SVG 20010904//EN"
 "http://www.w3.org/TR/2001/REC-SVG-20010904/DTD/svg10.dtd">
<svg version="1.0" xmlns="http://www.w3.org/2000/svg"
 width="64.000000pt" height="64.000000pt" viewBox="0 0 64.000000 64.000000"
 preserveAspectRatio="xMidYMid meet">

<g transform="translate(0.000000,64.000000) scale(0.100000,-0.100000)"
fill="#000000" stroke="none">
<path d="M0 320 l0 -320 320 0 320 0 0 320 0 320 -320 0 -320 0 0 -320z m496
292 c30 -24 41 -49 49 -114 l7 -58 38 0 38 0 1 -155 c1 -149 0 -155 -19 -155
-18 0 -20 -7 -20 -60 l0 -60 -60 0 -60 0 0 60 0 60 -150 0 -150 0 0 -60 0 -60
-60 0 -60 0 0 60 c0 53 -2 60 -20 60 -19 0 -20 6 -19 155 l1 155 38 0 38 0 7
58 c15 123 29 132 225 132 132 0 158 -3 176 -18z"/>
<path d="M193 599 c-47 -13 -64 -46 -70 -133 -5 -63 -3 -76 9 -76 12 0 16 18
21 76 3 41 11 82 17 90 18 21 282 21 300 0 6 -8 14 -49 17 -90 5 -58 9 -76 21
-76 12 0 14 13 9 76 -7 89 -23 119 -74 133 -46 13 -206 13 -250 0z"/>
<path d="M209 543 c-17 -4 -29 -50 -29 -115 l0 -38 140 0 140 0 0 48 c0 74
-11 77 -50 16 -19 -29 -38 -54 -42 -54 -22 0 -16 28 16 75 20 30 36 59 36 65
0 10 -176 13 -211 3z m76 -13 c7 -11 -64 -130 -77 -130 -22 0 -15 28 19 80 39
61 47 68 58 50z m80 0 c7 -11 -64 -130 -77 -130 -22 0 -15 28 19 80 39 61 47
68 58 50z"/>
<path d="M34 409 c-3 -6 -2 -15 3 -20 12 -12 53 1 53 17 0 17 -46 19 -56 3z"/>
<path d="M550 406 c0 -16 41 -29 53 -17 14 14 -2 31 -29 31 -14 0 -24 -6 -24
-14z"/>
<path d="M80 357 c-28 -14 -50 -51 -50 -84 0 -17 6 -23 23 -23 13 0 32 -9 42
-20 31 -34 42 -24 49 45 4 36 9 72 12 80 8 19 -40 20 -76 2z m50 -57 c0 -28
-2 -30 -40 -30 -38 0 -40 2 -40 30 0 28 2 30 40 30 38 0 40 -2 40 -30z"/>
<path d="M70 300 c0 -5 9 -10 20 -10 11 0 20 5 20 10 0 6 -9 10 -20 10 -11 0
-20 -4 -20 -10z"/>
<path d="M210 358 c-27 -14 -38 -47 -38 -113 0 -31 2 -27 9 20 5 33 11 66 14
73 6 17 244 17 250 0 3 -7 9 -40 15 -73 l9 -60 -4 65 c-3 39 -11 70 -20 80
-21 20 -199 26 -235 8z"/>
<path d="M483 356 c4 -9 9 -45 13 -81 7 -69 18 -79 49 -45 10 11 29 20 43 20
23 0 24 3 19 37 -8 49 -35 73 -87 80 -38 5 -42 4 -37 -11z m107 -56 c0 -28 -2
-30 -40 -30 -38 0 -40 2 -40 30 0 28 2 30 40 30 38 0 40 -2 40 -30z"/>
<path d="M530 300 c0 -5 9 -10 20 -10 11 0 20 5 20 10 0 6 -9 10 -20 10 -11 0
-20 -4 -20 -10z"/>
<path d="M225 320 c-9 -15 -19 -110 -11 -110 20 0 36 33 36 74 0 43 -11 59
-25 36z"/>
<path d="M270 280 c0 -27 5 -50 10 -50 6 0 10 23 10 50 0 28 -4 50 -10 50 -5
0 -10 -22 -10 -50z"/>
<path d="M310 280 c0 -27 5 -50 10 -50 6 0 10 23 10 50 0 28 -4 50 -10 50 -5
0 -10 -22 -10 -50z"/>
<path d="M350 280 c0 -27 5 -50 10 -50 6 0 10 23 10 50 0 28 -4 50 -10 50 -5
0 -10 -22 -10 -50z"/>
<path d="M390 285 c0 -27 6 -52 14 -61 21 -21 26 -17 25 19 -3 82 -39 122 -39
42z"/>
<path d="M32 188 l3 -33 97 -3 c93 -3 98 -2 98 18 0 18 -6 20 -71 20 -49 0
-75 4 -85 15 -27 26 -46 19 -42 -17z"/>
<path d="M566 205 c-10 -11 -36 -15 -85 -15 -65 0 -71 -2 -71 -20 0 -20 5 -21
98 -18 l97 3 3 33 c4 36 -15 43 -42 17z"/>
<path d="M257 204 c-4 -4 -7 -18 -7 -31 0 -22 3 -23 71 -23 l70 0 -3 28 c-3
26 -6 27 -63 30 -34 2 -64 0 -68 -4z m33 -24 c0 -5 -4 -10 -10 -10 -5 0 -10 5
-10 10 0 6 5 10 10 10 6 0 10 -4 10 -10z m80 0 c0 -5 -13 -10 -30 -10 -16 0
-30 5 -30 10 0 6 14 10 30 10 17 0 30 -4 30 -10z"/>
<path d="M70 121 c0 -5 6 -12 13 -14 9 -4 8 -8 -3 -16 -13 -10 -13 -12 0 -22
11 -8 12 -12 2 -16 -20 -8 -3 -23 28 -23 31 0 48 15 28 23 -10 4 -9 8 2 16 13
10 13 12 0 22 -11 8 -12 12 -2 16 26 10 10 23 -28 23 -22 0 -40 -4 -40 -9z"/>
<path d="M490 121 c0 -5 6 -12 13 -14 9 -4 8 -8 -3 -16 -13 -10 -13 -12 0 -22
11 -8 12 -12 2 -16 -20 -8 -3 -23 28 -23 31 0 48 15 28 23 -10 4 -9 8 2 16 13
10 13 12 0 22 -11 8 -12 12 -2 16 26 10 10 23 -28 23 -22 0 -40 -4 -40 -9z"/>
</g>
</svg>
